<svg width="496" height="333" viewBox="0 0 496 333" fill="none" xmlns="http://www.w3.org/2000/svg">
<path d="M188.16 261.084C158.957 241.624 133.737 219.733 122.53 186.882C112.048 156.155 119.035 123.274 141.017 99.0283C160.988 77.0022 186.839 62.2402 216.816 62.2402C231.328 62.2402 242.72 63.7785 257.077 66.0962C271.377 68.4046 288.454 72.5575 296.774 80.999C303.244 102.572 330.175 110.139 335.135 134.045C339.499 155.08 385.975 281.719 153.034 294.85" stroke="#979492" stroke-width="12" stroke-linecap="round" stroke-linejoin="round"/>
<path d="M230.676 181.842C248.264 170.401 264.346 170.401 271.406 170.401C273.908 170.401 281.322 168.63 278.812 172.944C267.704 183.922 264.845 193.913 261.687 200.042C257.589 207.994 241.784 200.042 234.842 194.842" stroke="#979492" stroke-width="8" stroke-linecap="round" stroke-linejoin="round"/>
<path d="M189.391 205.067C147.642 196.882 98.3421 201.987 48.3174 213.447" stroke="#979492" stroke-width="8" stroke-linecap="round" stroke-linejoin="round"/>
<path d="M188.767 224.182C153.479 227.241 138 224.182 108.708 240.966" stroke="#979492" stroke-width="8" stroke-linecap="round" stroke-linejoin="round"/>
<path d="M310.286 187.041C348.785 164.413 386.037 151.681 425.07 151.681" stroke="#979492" stroke-width="8" stroke-linecap="round" stroke-linejoin="round"/>
<path d="M103.248 144.98C108.465 128.186 66.8374 89.6255 68.8941 79.6574C70.7679 70.5754 116.047 92.8913 123.882 96.5537C130.633 99.7095 148.286 107.869 153.422 113.983" stroke="#979492" stroke-width="8" stroke-linecap="round" stroke-linejoin="round"/>
<path d="M226.978 70.5606C232.578 45.5868 245.851 32.3724 262.558 16.4789C266.066 13.142 293.743 -4.2055 296.428 8.72533C300.345 27.5885 290.232 39.5443 290.232 57.3868" stroke="#979492" stroke-width="8" stroke-linecap="round" stroke-linejoin="round"/>
<path d="M297.326 151.681C329.444 111.611 377.908 66.4006 425.07 66.4006" stroke="#979492" stroke-width="8" stroke-linecap="round" stroke-linejoin="round"/>
<path d="M214.19 164.795C208.035 143.155 199.125 129.936 179.458 135.78C174.442 137.27 164.98 145.765 161.935 152.375C160.981 154.446 155.592 164.381 157.551 165.752C161.422 168.461 164.104 171.709 168.873 172.727C177.065 174.476 188.996 173.719 197.815 169.882C205.64 166.477 212.634 160.81 217.611 149.151" stroke="#979492" stroke-width="8" stroke-linecap="round" stroke-linejoin="round"/>
<path d="M295.011 116.841C287.606 107.332 282.972 105.598 273.721 105.401C268.885 105.298 255.848 106.592 251.679 111.041C245.666 117.457 247.373 134.302 248.255 143.276C249.523 156.172 279.751 126.55 282.515 123.601" stroke="#979492" stroke-width="8" stroke-linecap="round" stroke-linejoin="round"/>
<g filter="url(#filter0_d)">
<mask id="path-11-inside-1" fill="white">
<path fill-rule="evenodd" clip-rule="evenodd" d="M294.223 231.246C276.427 235 265.043 252.47 268.797 270.266C272.551 288.062 290.021 299.445 307.818 295.691L344.086 288.041L362.56 308.621L371.147 282.332L381.051 280.243C398.847 276.489 410.231 259.019 406.477 241.223C402.723 223.427 385.253 212.043 367.457 215.797L294.223 231.246Z"/>
</mask>
<path fill-rule="evenodd" clip-rule="evenodd" d="M294.223 231.246C276.427 235 265.043 252.47 268.797 270.266C272.551 288.062 290.021 299.445 307.818 295.691L344.086 288.041L362.56 308.621L371.147 282.332L381.051 280.243C398.847 276.489 410.231 259.019 406.477 241.223C402.723 223.427 385.253 212.043 367.457 215.797L294.223 231.246Z" fill="white"/>
<path d="M344.086 288.041L347.063 285.369L345.52 283.65L343.261 284.127L344.086 288.041ZM362.56 308.621L359.583 311.293L364.211 316.449L366.362 309.863L362.56 308.621ZM371.147 282.332L370.321 278.418L368.061 278.895L367.344 281.09L371.147 282.332ZM272.711 269.44C269.413 253.806 279.414 238.458 295.048 235.16L293.397 227.332C273.439 231.542 260.673 251.134 264.883 271.091L272.711 269.44ZM306.992 291.778C291.357 295.076 276.009 285.075 272.711 269.44L264.883 271.091C269.093 291.049 288.685 303.815 308.643 299.605L306.992 291.778ZM343.261 284.127L306.992 291.778L308.643 299.605L344.912 291.954L343.261 284.127ZM365.537 305.949L347.063 285.369L341.11 290.713L359.583 311.293L365.537 305.949ZM367.344 281.09L358.758 307.379L366.362 309.863L374.949 283.574L367.344 281.09ZM380.226 276.329L370.321 278.418L371.972 286.246L381.877 284.157L380.226 276.329ZM402.563 242.048C405.861 257.683 395.86 273.031 380.226 276.329L381.877 284.157C401.835 279.947 414.601 260.355 410.391 240.397L402.563 242.048ZM368.282 219.711C383.917 216.413 399.265 226.414 402.563 242.048L410.391 240.397C406.181 220.439 386.589 207.673 366.631 211.883L368.282 219.711ZM295.048 235.16L368.282 219.711L366.631 211.883L293.397 227.332L295.048 235.16Z" fill="#B6B184" mask="url(#path-11-inside-1)"/>
</g>
<path d="M303.726 263.423C303.459 262.138 303.455 260.735 303.714 259.213C304.003 257.685 304.504 256.256 305.217 254.927C305.925 253.567 306.811 252.378 307.876 251.359C308.971 250.334 310.208 249.678 311.585 249.392C312.288 249.246 313.017 249.222 313.772 249.321C314.527 249.42 315.227 249.641 315.873 249.986C316.55 250.324 317.123 250.779 317.593 251.352C318.093 251.918 318.426 252.599 318.592 253.395C318.041 253.509 317.523 253.553 317.039 253.526C316.585 253.492 316.128 253.444 315.668 253.38C315.201 253.285 314.741 253.221 314.288 253.187C313.864 253.148 313.408 253.179 312.918 253.28C311.664 253.541 310.706 254.075 310.044 254.882C309.406 255.653 308.956 256.561 308.694 257.604C308.432 258.648 308.323 259.74 308.368 260.88C308.438 261.982 308.571 263.008 308.768 263.956C308.8 264.109 308.86 264.4 308.949 264.828C309.068 265.25 309.179 265.706 309.281 266.196C309.407 266.648 309.514 267.089 309.603 267.517C309.722 267.939 309.813 268.223 309.876 268.37C310.365 269.035 310.804 269.534 311.192 269.868C311.611 270.196 312.027 270.429 312.438 270.567C312.844 270.674 313.267 270.714 313.708 270.686C314.143 270.628 314.651 270.538 315.232 270.418C316.028 270.253 316.691 269.987 317.221 269.622C317.782 269.25 318.288 268.842 318.738 268.397C319.188 267.953 319.602 267.484 319.978 266.991C320.348 266.467 320.743 265.986 321.163 265.548C321.607 265.073 322.097 264.668 322.634 264.333C323.195 263.961 323.858 263.696 324.623 263.537C324.934 265.036 324.935 266.424 324.626 267.701C324.347 268.972 323.804 270.122 322.996 271.151C322.219 272.175 321.221 273.052 320 273.784C318.804 274.479 317.441 274.986 315.911 275.304C314.473 275.602 313.071 275.383 311.705 274.645C310.37 273.901 309.143 272.911 308.025 271.675C306.93 270.402 306.004 269.014 305.245 267.512C304.487 266.01 303.98 264.647 303.726 263.423ZM347.681 262.531C346.684 263.568 345.823 264.497 345.1 265.317C344.401 266.101 343.698 266.789 342.992 267.383C342.285 267.976 341.495 268.476 340.622 268.88C339.779 269.279 338.699 269.615 337.384 269.888C334.538 270.479 332.271 270.167 330.583 268.954C328.889 267.71 327.73 265.589 327.107 262.59C326.866 261.427 326.768 260.187 326.814 258.869C326.859 257.551 327.045 256.22 327.373 254.875C327.724 253.493 328.199 252.166 328.796 250.893C329.387 249.59 330.114 248.401 330.976 247.329C331.839 246.256 332.8 245.354 333.862 244.623C334.947 243.855 336.147 243.335 337.463 243.061C339.71 242.818 341.554 243.01 342.992 243.637C344.425 244.233 345.605 245.153 346.534 246.396C347.456 247.609 348.214 249.032 348.808 250.664C349.396 252.265 349.935 253.941 350.426 255.69C350.947 257.433 351.499 259.169 352.082 260.899C352.665 262.63 353.448 264.174 354.433 265.534C354.245 266.626 354.008 267.409 353.724 267.883C353.476 268.382 353.11 268.538 352.624 268.351C352.138 268.165 351.494 267.596 350.69 266.646C349.917 265.69 348.914 264.318 347.681 262.531ZM331.028 261.872C331.39 263.616 331.978 264.834 332.792 265.527C333.63 266.183 334.891 266.336 336.574 265.987C337.828 265.726 338.977 265.264 340.02 264.601C341.088 263.9 341.97 263.079 342.668 262.136C343.36 261.163 343.851 260.071 344.143 258.862C344.434 257.652 344.44 256.374 344.161 255.028C344.046 254.477 343.903 253.709 343.73 252.724C343.551 251.707 343.283 250.726 342.927 249.778C342.571 248.831 342.105 248.05 341.531 247.435C340.95 246.79 340.231 246.556 339.374 246.734C337.783 247.064 336.401 247.782 335.226 248.888C334.045 249.963 333.095 251.229 332.376 252.687C331.657 254.145 331.182 255.696 330.948 257.34C330.709 258.954 330.735 260.464 331.028 261.872ZM351.864 243.71C351.845 243.618 351.845 243.538 351.863 243.471C351.85 243.41 351.849 243.33 351.861 243.232C351.951 243.053 352.094 242.816 352.288 242.521C352.482 242.225 352.609 242.071 352.67 242.058L361.895 240.143C361.826 239.806 361.669 239.28 361.424 238.565C361.18 237.85 360.92 237.058 360.644 236.19C360.398 235.315 360.193 234.4 360.026 233.446C359.853 232.46 359.795 231.563 359.85 230.753C359.93 229.907 360.164 229.188 360.551 228.597C360.964 227.969 361.629 227.559 362.547 227.369C363.188 230.459 363.917 232.893 364.733 234.671C365.549 236.448 366.413 237.769 367.327 238.632C368.271 239.489 369.233 239.976 370.215 240.091C371.196 240.207 372.158 240.15 373.1 239.923C374.067 239.658 374.984 239.308 375.851 238.873C376.718 238.438 377.494 238.101 378.178 237.863C378.894 237.619 379.491 237.575 379.97 237.731C380.443 237.856 380.768 238.347 380.946 239.204C381.08 239.846 381.022 240.337 380.773 240.676C380.555 241.008 380.049 241.337 379.254 241.661C379.016 241.743 378.615 241.89 378.053 242.102C377.515 242.278 376.9 242.469 376.209 242.676C375.518 242.884 374.785 243.116 374.008 243.373C373.225 243.599 372.488 243.816 371.797 244.023C371.106 244.231 370.473 244.41 369.898 244.561C369.317 244.682 368.889 244.771 368.613 244.828C368.645 244.981 368.684 245.244 368.729 245.618C368.775 245.991 368.811 246.239 368.836 246.362C369.115 247.708 369.603 248.979 370.298 250.175C370.987 251.341 371.706 252.5 372.456 253.653C373.237 254.8 373.972 255.956 374.661 257.121C375.349 258.287 375.834 259.543 376.113 260.889C376.164 261.134 376.187 261.4 376.183 261.688C376.203 261.939 376.159 262.188 376.051 262.434C375.967 262.643 375.796 262.822 375.54 262.971C375.321 263.144 374.966 263.202 374.475 263.144C373.249 263.079 372.24 262.603 371.449 261.714C370.689 260.818 370.028 259.711 369.466 258.391C368.899 257.041 368.407 255.595 367.991 254.053C367.576 252.512 367.121 251.09 366.627 249.789C366.158 248.45 365.61 247.351 364.985 246.491C364.353 245.601 363.541 245.147 362.548 245.13L353.271 244.95C353.148 244.975 352.939 244.891 352.644 244.697C352.342 244.472 352.147 244.305 352.061 244.196C352.018 244.141 351.986 244.067 351.967 243.976C351.924 243.921 351.89 243.832 351.864 243.71Z" fill="#B6B184"/>
<g filter="url(#filter1_d)">
<mask id="path-14-inside-2" fill="white">
<path fill-rule="evenodd" clip-rule="evenodd" d="M363.148 107.087C349.811 109.9 341.281 122.992 344.094 136.329C346.907 149.665 359.999 158.196 373.336 155.382L377.901 154.42L391.303 169.35L397.532 150.278L468.113 135.39C481.449 132.576 489.98 119.484 487.167 106.148C484.353 92.8114 471.261 84.2806 457.925 87.0939L363.148 107.087Z"/>
</mask>
<path fill-rule="evenodd" clip-rule="evenodd" d="M363.148 107.087C349.811 109.9 341.281 122.992 344.094 136.329C346.907 149.665 359.999 158.196 373.336 155.382L377.901 154.42L391.303 169.35L397.532 150.278L468.113 135.39C481.449 132.576 489.98 119.484 487.167 106.148C484.353 92.8114 471.261 84.2806 457.925 87.0939L363.148 107.087Z" fill="white" fill-opacity="0.88"/>
<path d="M377.901 154.42L380.877 151.748L379.335 150.029L377.075 150.506L377.901 154.42ZM391.303 169.35L388.326 172.022L392.954 177.178L395.105 170.592L391.303 169.35ZM397.532 150.278L396.706 146.365L394.447 146.841L393.73 149.036L397.532 150.278ZM348.008 135.503C345.65 124.328 352.799 113.358 363.973 111.001L362.322 103.173C346.824 106.442 336.911 121.656 340.18 137.154L348.008 135.503ZM372.51 151.469C361.335 153.826 350.365 146.678 348.008 135.503L340.18 137.154C343.449 152.652 358.663 162.566 374.161 159.296L372.51 151.469ZM377.075 150.506L372.51 151.469L374.161 159.296L378.726 158.333L377.075 150.506ZM394.279 166.678L380.877 151.748L374.924 157.091L388.326 172.022L394.279 166.678ZM393.73 149.036L387.5 168.108L395.105 170.592L401.334 151.52L393.73 149.036ZM467.287 131.476L396.706 146.365L398.358 154.192L468.938 139.303L467.287 131.476ZM483.253 106.973C485.61 118.148 478.462 129.118 467.287 131.476L468.938 139.303C484.436 136.034 494.35 120.82 491.08 105.322L483.253 106.973ZM458.75 91.0078C469.925 88.6505 480.895 95.7985 483.253 106.973L491.08 105.322C487.811 89.8242 472.597 79.9108 457.099 83.18L458.75 91.0078ZM363.973 111.001L458.75 91.0078L457.099 83.18L362.322 103.173L363.973 111.001Z" fill="#D6D3B9" mask="url(#path-14-inside-2)"/>
</g>
<path d="M359.276 127.945C359.163 127.404 359.162 126.963 359.272 126.623C359.405 126.28 359.774 126.045 360.381 125.919C360.446 125.905 360.567 125.891 360.745 125.877C360.94 125.836 361.059 125.812 361.103 125.803C361.394 126.443 361.699 127.148 362.017 127.919C362.352 128.663 362.712 129.414 363.095 130.17C363.478 130.927 363.881 131.669 364.303 132.395C364.747 133.117 365.229 133.752 365.749 134.299C366.054 133.806 366.234 133.26 366.291 132.661C366.347 132.061 366.36 131.471 366.33 130.889C366.295 130.286 366.256 129.718 366.213 129.184C366.187 128.624 366.256 128.135 366.417 127.717C366.575 127.278 366.863 126.924 367.282 126.656C367.723 126.384 368.373 126.249 369.233 126.251C370.143 126.062 370.905 126.085 371.519 126.319C372.128 126.531 372.682 126.857 373.18 127.296C373.695 127.709 374.198 128.17 374.688 128.679C375.195 129.161 375.789 129.57 376.468 129.903C376.54 129.594 376.63 129.214 376.74 128.762C376.845 128.288 376.991 127.794 377.178 127.28C377.383 126.74 377.6 126.209 377.831 125.687C378.079 125.138 378.348 124.641 378.64 124.196C378.928 123.729 379.242 123.336 379.583 123.017C379.919 122.676 380.271 122.467 380.639 122.391C381.528 122.206 382.356 122.328 383.123 122.757C383.886 123.163 384.582 123.742 385.213 124.493C385.861 125.217 386.444 126.068 386.964 127.046C387.479 128.001 387.922 128.938 388.293 129.856C388.665 130.773 388.966 131.626 389.198 132.415C389.446 133.177 389.607 133.731 389.679 134.078C389.737 134.36 389.717 134.59 389.619 134.769C389.52 134.948 389.382 135.101 389.205 135.228C389.024 135.333 388.816 135.422 388.582 135.493C388.37 135.559 388.166 135.613 387.971 135.654C387.928 135.663 387.863 135.676 387.776 135.694C387.685 135.69 387.583 135.689 387.47 135.69C387.379 135.686 387.253 135.678 387.092 135.666L382.961 126.385C382.947 126.32 382.836 126.219 382.626 126.081C382.413 125.922 382.258 125.83 382.162 125.805C382.097 125.818 382.041 125.819 381.993 125.806C381.949 125.815 381.917 125.822 381.895 125.826C381.869 125.809 381.845 125.803 381.824 125.807C381.368 125.902 380.973 126.176 380.638 126.63C380.324 127.079 380.053 127.622 379.823 128.257C379.593 128.893 379.398 129.589 379.239 130.345C379.08 131.102 378.953 131.852 378.858 132.595C378.759 133.316 378.673 133.989 378.6 134.615C378.543 135.215 378.492 135.677 378.447 136.003C378.369 136.065 378.205 136.144 377.954 136.241C377.698 136.317 377.527 136.364 377.44 136.382C376.834 136.508 376.325 136.399 375.914 136.054C375.499 135.688 375.118 135.214 374.771 134.63C374.445 134.042 374.13 133.395 373.825 132.69C373.538 131.959 373.22 131.301 372.873 130.717C372.548 130.129 372.158 129.668 371.704 129.332C371.267 128.971 370.724 128.858 370.073 128.993C369.835 129.042 369.657 129.328 369.539 129.85C369.421 130.372 369.352 131.019 369.332 131.792C369.307 132.543 369.307 133.357 369.33 134.234C369.35 135.089 369.382 135.896 369.426 136.655C369.488 137.389 369.549 138.009 369.609 138.517C369.669 139.024 369.699 139.278 369.699 139.278C369.67 139.352 369.599 139.446 369.487 139.559C369.37 139.651 369.245 139.756 369.111 139.875C368.999 139.988 368.872 140.083 368.729 140.157C368.608 140.228 368.515 140.27 368.45 140.283C367.843 140.409 367.202 140.26 366.526 139.835C365.845 139.388 365.177 138.781 364.52 138.013C363.88 137.219 363.255 136.332 362.644 135.351C362.055 134.365 361.525 133.39 361.054 132.425C360.582 131.461 360.185 130.582 359.862 129.79C359.561 128.994 359.366 128.379 359.276 127.945ZM389.999 128.925C389.72 127.581 389.776 126.27 390.166 124.991C390.551 123.69 391.168 122.522 392.015 121.487C392.88 120.425 393.903 119.524 395.082 118.781C396.284 118.035 397.545 117.524 398.867 117.249C399.604 117.096 400.304 117.2 400.967 117.56C401.651 117.915 402.26 118.399 402.794 119.011C403.324 119.602 403.765 120.257 404.117 120.975C404.491 121.688 404.737 122.327 404.854 122.89C405.106 124.104 405.059 125.346 404.712 126.616C404.361 127.865 403.812 129.03 403.064 130.112C402.312 131.173 401.407 132.095 400.349 132.88C399.292 133.665 398.177 134.179 397.007 134.422C395.967 134.638 395.053 134.647 394.266 134.448C393.474 134.228 392.801 133.871 392.246 133.376C391.686 132.859 391.215 132.222 390.832 131.465C390.466 130.682 390.188 129.835 389.999 128.925ZM392.83 128.676C392.947 129.24 393.094 129.729 393.271 130.145C393.464 130.534 393.712 130.856 394.013 131.11C394.337 131.359 394.722 131.528 395.17 131.616C395.613 131.682 396.138 131.652 396.745 131.526C397.547 131.359 398.304 130.976 399.016 130.376C399.723 129.755 400.321 129.043 400.81 128.24C401.317 127.412 401.679 126.545 401.898 125.64C402.117 124.736 402.146 123.893 401.984 123.113C401.912 122.766 401.801 122.394 401.65 121.996C401.5 121.597 401.313 121.241 401.089 120.925C400.865 120.61 400.588 120.362 400.256 120.183C399.925 120.003 399.543 119.958 399.109 120.048C398.719 120.129 398.28 120.355 397.792 120.728C397.326 121.096 396.843 121.547 396.344 122.08C395.866 122.609 395.399 123.192 394.943 123.829C394.51 124.462 394.119 125.085 393.772 125.7C393.425 126.315 393.16 126.89 392.977 127.425C392.816 127.956 392.767 128.373 392.83 128.676ZM405.325 118.791C405.298 118.661 405.251 118.433 405.184 118.108C405.133 117.757 405.07 117.397 404.993 117.029C404.917 116.66 404.847 116.324 404.784 116.021C404.738 115.691 404.702 115.461 404.675 115.331C404.773 115.04 404.894 114.755 405.04 114.476C405.203 114.171 405.383 113.952 405.582 113.821C405.798 113.663 406.043 113.589 406.316 113.6C406.612 113.607 406.938 113.765 407.297 114.075L407.351 114.335L407.438 114.758C407.439 114.871 407.45 115.14 407.47 115.565C407.486 115.969 407.5 116.418 407.513 116.913C407.525 117.407 407.531 117.87 407.529 118.299C407.545 118.703 407.565 118.959 407.587 119.067C407.673 119.479 407.824 119.99 408.041 120.601C408.254 121.19 408.506 121.804 408.797 122.445C409.11 123.081 409.455 123.71 409.833 124.332C410.233 124.95 410.662 125.494 411.121 125.964C411.576 126.412 412.045 126.766 412.529 127.028C413.035 127.285 413.569 127.354 414.133 127.237C414.826 127.093 415.395 126.783 415.839 126.307C416.304 125.826 416.671 125.252 416.939 124.586C417.208 123.92 417.385 123.194 417.47 122.407C417.578 121.616 417.63 120.837 417.629 120.068C417.623 119.278 417.581 118.53 417.502 117.823C417.423 117.116 417.33 116.502 417.222 115.982C417.114 115.462 416.969 114.983 416.788 114.546C416.624 114.083 416.44 113.635 416.237 113.202C416.035 112.769 415.845 112.345 415.668 111.93C415.509 111.488 415.382 111.04 415.287 110.585C415.202 110.173 415.282 109.851 415.527 109.619C415.795 109.383 416.113 109.226 416.481 109.15C416.936 109.055 417.334 109.12 417.674 109.343C418.01 109.545 418.297 109.835 418.534 110.216C418.793 110.592 419 111.046 419.156 111.579C419.329 112.085 419.469 112.599 419.577 113.119C419.685 113.639 419.778 114.14 419.855 114.621C419.928 115.081 419.994 115.451 420.052 115.733C420.205 116.47 420.324 117.316 420.41 118.27C420.495 119.225 420.5 120.23 420.425 121.285C420.368 122.314 420.232 123.349 420.018 124.388C419.826 125.422 419.516 126.38 419.088 127.26C418.678 128.114 418.141 128.847 417.477 129.46C416.834 130.068 416.047 130.468 415.115 130.662C414.14 130.864 413.236 130.815 412.405 130.513C411.569 130.189 410.812 129.702 410.135 129.051C409.474 128.374 408.869 127.584 408.32 126.681C407.771 125.778 407.297 124.859 406.9 123.924C406.524 122.984 406.198 122.069 405.922 121.176C405.664 120.258 405.465 119.463 405.325 118.791ZM430.728 125.827C431.025 125.516 431.374 125.127 431.774 124.66C432.191 124.166 432.604 123.651 433.013 123.114C433.421 122.577 433.793 122.025 434.127 121.458C434.462 120.891 434.703 120.367 434.852 119.884C435.017 119.374 435.059 118.925 434.978 118.535C434.897 118.145 434.635 117.86 434.191 117.681C433.497 117.825 432.745 118.015 431.935 118.251C431.121 118.465 430.302 118.658 429.478 118.829C428.65 118.978 427.832 119.069 427.025 119.101C426.24 119.128 425.507 119.032 424.829 118.811C424.15 118.59 423.561 118.204 423.062 117.652C422.58 117.073 422.236 116.286 422.029 115.289C421.786 114.119 421.784 113.022 422.024 112.001C422.281 110.952 422.704 109.994 423.292 109.126C423.876 108.236 424.567 107.426 425.365 106.695C426.18 105.938 427.013 105.268 427.864 104.684C428.459 104.719 429.035 104.882 429.593 105.173C430.151 105.464 430.653 105.812 431.098 106.217C431.046 106.725 430.819 107.156 430.418 107.511C430.038 107.861 429.576 108.194 429.031 108.511C428.508 108.823 427.955 109.153 427.372 109.5C426.788 109.847 426.274 110.259 425.831 110.735C425.404 111.186 425.078 111.739 424.853 112.397C424.623 113.032 424.605 113.816 424.799 114.748C424.943 115.441 425.222 115.915 425.636 116.168C426.05 116.421 426.553 116.554 427.143 116.567C427.729 116.558 428.378 116.469 429.088 116.299C429.795 116.107 430.509 115.902 431.233 115.684C431.978 115.461 432.708 115.276 433.423 115.127C434.134 114.957 434.791 114.911 435.395 114.989C435.995 115.046 436.5 115.246 436.91 115.59C437.343 115.93 437.642 116.501 437.809 117.303C437.881 117.649 437.854 118.119 437.728 118.71C437.624 119.297 437.442 119.945 437.182 120.654C436.94 121.338 436.621 122.037 436.227 122.752C435.855 123.462 435.438 124.125 434.978 124.74C434.536 125.33 434.066 125.845 433.57 126.288C433.091 126.703 432.613 126.961 432.137 127.06C431.682 127.154 431.344 127.055 431.125 126.761C430.928 126.463 430.795 126.152 430.728 125.827ZM438.94 116.22C438.697 115.05 438.595 113.85 438.634 112.621C438.673 111.392 438.899 110.249 439.312 109.191C439.747 108.129 440.391 107.203 441.245 106.416C442.121 105.624 443.263 105.081 444.672 104.789C445.474 104.622 446.209 104.628 446.879 104.805C447.545 104.961 448.133 105.234 448.643 105.626C449.154 106.017 449.575 106.518 449.905 107.127C450.252 107.711 450.498 108.349 450.642 109.043C450.871 110.148 450.834 111.275 450.53 112.423C450.247 113.567 449.756 114.63 449.055 115.612C448.372 116.568 447.52 117.366 446.501 118.007C445.476 118.627 444.367 118.948 443.174 118.97C443.326 119.594 443.637 120.06 444.109 120.369C444.597 120.652 445.143 120.833 445.747 120.911C446.351 120.989 446.963 120.997 447.583 120.936C448.199 120.854 448.746 120.763 449.222 120.664C449.721 120.56 450.178 120.42 450.593 120.244C451.009 120.067 451.422 119.879 451.833 119.681C452.244 119.483 452.657 119.295 453.073 119.118C453.51 118.937 453.978 118.795 454.476 118.691C454.671 118.651 454.868 118.621 455.068 118.602C455.268 118.584 455.463 118.599 455.654 118.65C455.841 118.679 456.007 118.769 456.151 118.92C456.291 119.049 456.386 119.233 456.435 119.471C456.521 119.883 456.441 120.262 456.196 120.606C455.947 120.929 455.604 121.238 455.168 121.532C454.753 121.822 454.275 122.079 453.734 122.304C453.189 122.508 452.652 122.699 452.123 122.876C451.612 123.028 451.129 123.15 450.674 123.245C450.245 123.357 449.922 123.435 449.705 123.48C448.318 123.768 447.027 123.81 445.832 123.606C444.632 123.38 443.572 122.956 442.651 122.333C441.726 121.689 440.943 120.857 440.302 119.837C439.678 118.791 439.224 117.585 438.94 116.22ZM441.948 113.391C442.105 114.15 442.317 114.682 442.584 114.989C442.873 115.29 443.418 115.358 444.22 115.191C444.784 115.074 445.316 114.862 445.818 114.555C446.314 114.225 446.741 113.832 447.098 113.373C447.477 112.91 447.745 112.402 447.901 111.85C448.058 111.298 448.075 110.729 447.954 110.144C447.886 109.818 447.784 109.489 447.647 109.156C447.532 108.818 447.358 108.526 447.126 108.281C446.89 108.013 446.613 107.822 446.295 107.707C445.994 107.566 445.627 107.541 445.194 107.631C444.544 107.766 443.979 108.041 443.5 108.457C443.039 108.847 442.673 109.318 442.404 109.872C442.13 110.403 441.956 110.982 441.882 111.608C441.804 112.212 441.826 112.806 441.948 113.391ZM464.291 118.926C464.237 118.665 464.274 118.353 464.402 117.987C464.529 117.621 464.694 117.271 464.895 116.935C465.118 116.595 465.362 116.296 465.624 116.038C465.909 115.775 466.192 115.614 466.474 115.556C466.517 115.547 466.646 115.622 466.86 115.781C467.091 115.914 467.261 116.026 467.37 116.116C467.427 116.172 467.504 116.269 467.6 116.407C467.714 116.519 467.819 116.644 467.916 116.783C468.034 116.916 468.128 117.044 468.198 117.165C468.264 117.264 468.299 117.325 468.304 117.346C468.389 117.758 468.4 118.084 468.337 118.323C468.269 118.54 468.158 118.711 468.002 118.833C467.842 118.934 467.643 119.009 467.405 119.059C467.188 119.104 466.95 119.153 466.69 119.207C466.603 119.225 466.443 119.27 466.209 119.341C465.97 119.391 465.708 119.434 465.422 119.471C465.153 119.481 464.912 119.464 464.699 119.417C464.481 119.35 464.345 119.186 464.291 118.926ZM459.501 106.796C459.339 106.016 459.34 105.259 459.504 104.524C459.685 103.763 459.881 103.021 460.093 102.299C460.326 101.572 460.525 100.842 460.689 100.107C460.87 99.3456 460.88 98.575 460.718 97.7947C460.659 97.513 460.518 97.2709 460.296 97.0685C460.09 96.8399 459.85 96.6637 459.575 96.5398C459.296 96.3942 458.994 96.2988 458.668 96.2534C458.342 96.208 458.038 96.2146 457.757 96.2731C457.345 96.3586 456.977 96.548 456.654 96.8412C456.352 97.1299 456.081 97.4575 455.84 97.8239C455.596 98.1687 455.366 98.5329 455.152 98.9165C454.959 99.2956 454.755 99.6205 454.54 99.8912C454.506 99.9436 454.363 100.018 454.112 100.116C453.883 100.209 453.735 100.262 453.67 100.275C453.495 99.43 453.441 98.6273 453.51 97.8671C453.599 97.1024 453.818 96.4127 454.165 95.798C454.512 95.1834 454.993 94.6654 455.606 94.2441C456.236 93.7967 456.985 93.483 457.852 93.303C458.459 93.177 459.106 93.1896 459.793 93.3409C460.502 93.4876 461.155 93.7477 461.752 94.121C462.345 94.4726 462.865 94.9073 463.312 95.4249C463.758 95.9426 464.047 96.5157 464.177 97.1442C464.339 97.9245 464.379 98.6622 464.298 99.3574C464.233 100.026 464.118 100.672 463.954 101.294C463.784 101.894 463.602 102.486 463.407 103.069C463.211 103.652 463.064 104.248 462.964 104.857C462.864 105.465 462.86 106.099 462.952 106.758C463.039 107.396 463.276 108.104 463.664 108.882C463.634 108.956 463.563 109.05 463.451 109.164C463.335 109.256 463.207 109.35 463.069 109.447C462.953 109.539 462.825 109.633 462.687 109.73C462.57 109.822 462.48 109.874 462.415 109.888C461.938 109.987 461.534 109.946 461.203 109.766C460.867 109.565 460.576 109.309 460.331 108.998C460.103 108.661 459.924 108.291 459.795 107.888C459.666 107.486 459.568 107.122 459.501 106.796Z" fill="#D6D2D2"/>
<g filter="url(#filter2_d)">
<mask id="path-17-inside-3" fill="white">
<path fill-rule="evenodd" clip-rule="evenodd" d="M30.1255 243.83C16.8013 246.641 8.27851 259.72 11.0892 273.045C13.8999 286.369 26.9797 294.891 40.3038 292.081L84.9908 282.654L103.293 303.044L111.8 276.999L114.923 276.34C128.247 273.529 136.77 260.45 133.959 247.125C131.149 233.801 118.069 225.279 104.745 228.089L30.1255 243.83Z"/>
</mask>
<path fill-rule="evenodd" clip-rule="evenodd" d="M30.1255 243.83C16.8013 246.641 8.27851 259.72 11.0892 273.045C13.8999 286.369 26.9797 294.891 40.3038 292.081L84.9908 282.654L103.293 303.044L111.8 276.999L114.923 276.34C128.247 273.529 136.77 260.45 133.959 247.125C131.149 233.801 118.069 225.279 104.745 228.089L30.1255 243.83Z" fill="white" fill-opacity="0.88"/>
<path d="M84.9908 282.654L87.9675 279.982L86.4249 278.264L84.1652 278.74L84.9908 282.654ZM103.293 303.044L100.316 305.716L104.944 310.872L107.095 304.286L103.293 303.044ZM111.8 276.999L110.974 273.085L108.715 273.562L107.998 275.757L111.8 276.999ZM15.0031 272.219C12.6484 261.056 19.7885 250.098 30.9511 247.744L29.2998 239.916C13.8141 243.183 3.90867 258.384 7.17533 273.87L15.0031 272.219ZM39.4782 288.167C28.3157 290.522 17.3578 283.381 15.0031 272.219L7.17533 273.87C10.442 289.356 25.6437 299.261 41.1294 295.995L39.4782 288.167ZM84.1652 278.74L39.4782 288.167L41.1294 295.995L85.8164 286.568L84.1652 278.74ZM106.27 300.372L87.9675 279.982L82.0141 285.326L100.316 305.716L106.27 300.372ZM107.998 275.757L99.4908 301.802L107.095 304.286L115.602 278.241L107.998 275.757ZM114.097 272.426L110.974 273.085L112.626 280.913L115.749 280.254L114.097 272.426ZM130.045 247.951C132.4 259.114 125.26 270.072 114.097 272.426L115.749 280.254C131.234 276.987 141.14 261.786 137.873 246.3L130.045 247.951ZM105.57 232.003C116.733 229.648 127.691 236.789 130.045 247.951L137.873 246.3C134.607 230.814 119.405 220.909 103.919 224.175L105.57 232.003ZM30.9511 247.744L105.57 232.003L103.919 224.175L29.2998 239.916L30.9511 247.744Z" fill="#D6D3B9" mask="url(#path-17-inside-3)"/>
</g>
<path d="M38.7264 278.783C37.6496 276.972 36.6322 275.285 35.6744 273.72C34.7337 272.129 33.867 270.568 33.0744 269.037C32.2989 267.48 31.6056 265.883 30.9946 264.247C30.3835 262.61 29.8777 260.828 29.4772 258.899C29.4457 258.747 29.3895 258.476 29.3085 258.086C29.2446 257.67 29.1677 257.245 29.0777 256.811C28.9877 256.378 28.9022 255.966 28.8212 255.576C28.7574 255.16 28.7097 254.876 28.6782 254.724C28.7833 254.25 29.036 253.779 29.4363 253.312C29.8583 252.84 30.3185 252.552 30.817 252.449C31.15 254.053 31.5271 255.76 31.9485 257.572C32.3653 259.362 32.8689 261.134 33.4591 262.887C34.071 264.637 34.8062 266.327 35.6647 267.957C36.5403 269.561 37.5927 270.982 38.8216 272.219C38.7353 271.694 38.6377 271.115 38.5289 270.482C38.42 269.849 38.3437 269.209 38.2999 268.563C38.2778 267.912 38.3143 267.271 38.4096 266.641C38.5048 266.011 38.7111 265.426 39.0283 264.885C39.3673 264.34 39.8457 263.867 40.4636 263.468C41.1031 263.064 41.9453 262.765 42.9901 262.57C43.9221 262.377 44.7925 262.377 45.6014 262.571C46.4319 262.76 47.1595 263.106 47.7839 263.61C48.4256 264.087 48.9597 264.699 49.3863 265.447C49.83 266.169 50.1442 266.974 50.3287 267.863C50.5762 269.055 50.5266 270.286 50.1799 271.556C49.8332 272.826 49.2667 274.018 48.4805 275.13C47.7158 276.239 46.796 277.198 45.721 278.009C44.6415 278.799 43.484 279.322 42.2486 279.578C41.6201 279.709 40.9908 279.726 40.3606 279.631C39.7259 279.514 39.1812 279.232 38.7264 278.783ZM43.9675 265.318C43.5835 265.646 43.1869 266.022 42.7776 266.446C42.3683 266.87 42.0297 267.472 41.7619 268.251C41.5113 269.004 41.3666 269.995 41.3279 271.224C41.2891 272.452 41.4375 274.038 41.773 275.981C41.8163 275.972 41.9269 275.96 42.1048 275.946C42.3044 275.927 42.4367 275.911 42.5017 275.897C43.0869 275.776 43.7096 275.454 44.37 274.933C45.0521 274.407 45.6836 273.801 46.2647 273.115C46.8674 272.425 47.3613 271.7 47.7465 270.942C48.1272 270.162 48.3087 269.458 48.291 268.828C48.2795 268.446 48.1159 268.04 47.8002 267.608C47.4845 267.176 47.0974 266.782 46.6389 266.425C46.1977 266.041 45.7288 265.743 45.2323 265.53C44.7576 265.312 44.3359 265.241 43.9675 265.318ZM52.4198 267.971C52.1768 266.801 52.0746 265.601 52.1134 264.372C52.1521 263.143 52.3782 262 52.7915 260.942C53.2266 259.88 53.871 258.955 54.7248 258.167C55.6002 257.375 56.7423 256.832 58.1511 256.54C58.953 256.373 59.6889 256.379 60.3587 256.556C61.0241 256.712 61.6122 256.986 62.1229 257.377C62.6337 257.768 63.0542 258.269 63.3842 258.878C63.7315 259.462 63.9771 260.1 64.1211 260.794C64.3506 261.899 64.3132 263.026 64.0091 264.174C63.7266 265.318 63.2351 266.381 62.5347 267.363C61.8515 268.319 60.9999 269.117 59.9801 269.759C58.9558 270.378 57.8468 270.699 56.6531 270.721C56.8052 271.345 57.1169 271.811 57.588 272.12C58.0763 272.403 58.6224 272.584 59.2264 272.662C59.8305 272.74 60.4426 272.748 61.063 272.687C61.6788 272.605 62.2252 272.514 62.702 272.415C63.2004 272.311 63.6574 272.171 64.0729 271.995C64.4883 271.818 64.9016 271.63 65.3125 271.432C65.7235 271.234 66.1367 271.046 66.5522 270.87C66.9893 270.688 67.4571 270.546 67.9556 270.442C68.1507 270.402 68.348 270.372 68.5475 270.353C68.7471 270.335 68.9426 270.351 69.1339 270.401C69.3208 270.43 69.4864 270.52 69.6308 270.671C69.7707 270.8 69.8654 270.984 69.9149 271.223C70.0004 271.634 69.9207 272.013 69.6757 272.357C69.4263 272.68 69.0834 272.989 68.6471 273.283C68.2325 273.573 67.7547 273.83 67.2137 274.055C66.6682 274.259 66.1312 274.45 65.6029 274.627C65.0918 274.779 64.6086 274.902 64.1535 274.996C63.7245 275.108 63.4017 275.186 63.1849 275.231C61.7979 275.519 60.5066 275.561 59.3113 275.357C58.1115 275.131 57.0513 274.707 56.1307 274.085C55.2057 273.44 54.4225 272.608 53.7812 271.588C53.1571 270.542 52.7033 269.337 52.4198 267.971ZM55.4271 265.142C55.5846 265.901 55.7968 266.433 56.0639 266.74C56.3526 267.041 56.8979 267.109 57.6999 266.943C58.2634 266.826 58.7958 266.613 59.2971 266.306C59.7939 265.977 60.2208 265.583 60.5778 265.124C60.9564 264.661 61.224 264.154 61.3806 263.601C61.5372 263.049 61.5547 262.48 61.4332 261.895C61.3657 261.57 61.2635 261.24 61.1264 260.907C61.0111 260.569 60.8375 260.278 60.6056 260.032C60.3692 259.764 60.0921 259.573 59.7744 259.458C59.4738 259.317 59.1068 259.292 58.6733 259.382C58.0231 259.517 57.4586 259.792 56.9798 260.208C56.5181 260.598 56.1526 261.069 55.8831 261.623C55.6092 262.154 55.4355 262.733 55.3619 263.359C55.2838 263.963 55.3056 264.557 55.4271 265.142ZM85.5452 266.146C84.8386 266.881 84.2291 267.538 83.7168 268.12C83.2216 268.674 82.7238 269.162 82.2233 269.583C81.7228 270.003 81.1632 270.357 80.5445 270.643C79.9474 270.926 79.183 271.163 78.251 271.357C76.2354 271.775 74.6297 271.555 73.4339 270.695C72.2336 269.814 71.413 268.312 70.972 266.188C70.801 265.364 70.7316 264.486 70.7638 263.552C70.796 262.618 70.9281 261.675 71.1598 260.723C71.4088 259.744 71.7449 258.804 72.1681 257.902C72.5867 256.979 73.1015 256.137 73.7124 255.377C74.3233 254.618 75.0045 253.979 75.7561 253.461C76.5249 252.917 77.3752 252.548 78.3072 252.355C79.8991 252.183 81.2047 252.318 82.2238 252.762C83.2384 253.185 84.0745 253.836 84.7321 254.717C85.3853 255.576 85.9223 256.584 86.3432 257.74C86.7595 258.874 87.1416 260.061 87.4893 261.3C87.8586 262.535 88.2497 263.765 88.6624 264.99C89.0751 266.216 89.6301 267.31 90.3274 268.273C90.1942 269.047 90.0268 269.601 89.8252 269.937C89.6498 270.29 89.3901 270.401 89.0462 270.268C88.7023 270.136 88.2456 269.734 87.6764 269.061C87.1287 268.383 86.4183 267.412 85.5452 266.146ZM73.7488 265.679C74.0053 266.914 74.4219 267.777 74.9985 268.268C75.5923 268.733 76.4852 268.841 77.6773 268.594C78.5659 268.409 79.3796 268.082 80.1185 267.612C80.8746 267.116 81.4998 266.534 81.9942 265.866C82.484 265.177 82.8322 264.403 83.0386 263.547C83.245 262.69 83.2493 261.785 83.0513 260.831C82.9703 260.441 82.8686 259.897 82.7463 259.199C82.6195 258.479 82.4299 257.784 82.1775 257.113C81.9251 256.442 81.5955 255.888 81.1886 255.453C80.7771 254.996 80.268 254.83 79.6611 254.956C78.5341 255.19 77.5546 255.699 76.7225 256.482C75.8858 257.243 75.213 258.141 74.704 259.173C74.1949 260.206 73.8578 261.304 73.6927 262.469C73.5231 263.612 73.5418 264.682 73.7488 265.679ZM89.7903 255.396C89.7498 255.201 89.7201 255.004 89.7013 254.805C89.678 254.583 89.6831 254.39 89.7166 254.225C89.7456 254.038 89.8139 253.877 89.9214 253.741C90.0506 253.602 90.2453 253.505 90.5054 253.451C90.7221 253.406 90.9965 253.53 91.3286 253.822C91.6778 254.089 92.0473 254.453 92.4371 254.915C92.8223 255.355 93.208 255.851 93.5941 256.404C94.0018 256.952 94.3572 257.466 94.6603 257.946C94.9805 258.399 95.2439 258.797 95.4504 259.138C95.657 259.48 95.7733 259.659 95.7995 259.676C95.9238 258.859 96.067 257.97 96.2293 257.01C96.3916 256.049 96.6432 255.138 96.9842 254.276C97.3423 253.388 97.8142 252.611 98.3997 251.947C99.0069 251.279 99.8199 250.838 100.839 250.627C101.359 250.519 101.864 250.504 102.355 250.583C102.864 250.636 103.325 250.789 103.739 251.042C104.171 251.269 104.54 251.577 104.847 251.965C105.153 252.354 105.365 252.83 105.482 253.393C105.581 253.87 105.456 254.246 105.106 254.522C104.778 254.794 104.376 254.979 103.899 255.078L103.574 255.146L101.886 254.038C101.843 254.047 101.808 254.043 101.782 254.026C101.738 254.035 101.695 254.044 101.652 254.053C101.625 254.036 101.591 254.032 101.547 254.041C100.789 254.198 100.238 254.538 99.8942 255.062C99.5679 255.559 99.3617 256.145 99.2754 256.818C99.1847 257.47 99.1788 258.149 99.2578 258.857C99.354 259.537 99.4605 260.16 99.5775 260.723C99.6675 261.157 99.8031 261.592 99.9843 262.029C100.161 262.444 100.349 262.858 100.547 263.269C100.741 263.658 100.928 264.071 101.109 264.508C101.286 264.924 101.424 265.37 101.523 265.847C101.712 266.757 101.319 267.313 100.344 267.516C99.8018 267.628 99.1798 267.464 98.4776 267.022C97.7709 266.558 97.0327 265.943 96.2631 265.175C95.5151 264.404 94.7707 263.541 94.0301 262.587C93.2849 261.611 92.6115 260.655 92.0099 259.717C91.4083 258.779 90.9028 257.924 90.4934 257.15C90.1056 256.371 89.8713 255.787 89.7903 255.396ZM114.572 263.036C114.518 262.776 114.554 262.463 114.682 262.097C114.81 261.732 114.974 261.381 115.176 261.045C115.399 260.705 115.642 260.406 115.905 260.148C116.19 259.885 116.473 259.725 116.755 259.666C116.798 259.657 116.927 259.732 117.14 259.891C117.371 260.024 117.542 260.136 117.651 260.226C117.708 260.282 117.784 260.379 117.881 260.517C117.995 260.629 118.1 260.755 118.196 260.893C118.314 261.026 118.409 261.154 118.479 261.275C118.545 261.374 118.58 261.435 118.584 261.456C118.67 261.868 118.681 262.194 118.618 262.433C118.55 262.651 118.438 262.821 118.283 262.943C118.123 263.044 117.924 263.12 117.685 263.169C117.469 263.214 117.23 263.264 116.97 263.318C116.883 263.336 116.723 263.38 116.489 263.451C116.251 263.501 115.989 263.544 115.702 263.581C115.433 263.592 115.192 263.574 114.979 263.528C114.761 263.46 114.626 263.296 114.572 263.036ZM109.781 250.907C109.619 250.126 109.62 249.369 109.784 248.634C109.965 247.873 110.162 247.131 110.373 246.409C110.607 245.682 110.806 244.952 110.97 244.217C111.151 243.456 111.16 242.685 110.998 241.905C110.94 241.623 110.799 241.381 110.576 241.179C110.37 240.95 110.13 240.774 109.856 240.65C109.577 240.504 109.275 240.409 108.949 240.364C108.623 240.318 108.319 240.325 108.037 240.383C107.625 240.469 107.258 240.658 106.934 240.951C106.633 241.24 106.361 241.568 106.121 241.934C105.876 242.279 105.647 242.643 105.432 243.027C105.24 243.406 105.036 243.731 104.821 244.001C104.786 244.054 104.644 244.129 104.393 244.226C104.163 244.319 104.016 244.372 103.951 244.385C103.776 243.54 103.722 242.737 103.79 241.977C103.88 241.212 104.099 240.523 104.446 239.908C104.793 239.293 105.273 238.776 105.886 238.354C106.517 237.907 107.266 237.593 108.133 237.413C108.739 237.287 109.386 237.3 110.073 237.451C110.782 237.598 111.435 237.858 112.033 238.231C112.626 238.583 113.145 239.017 113.592 239.535C114.039 240.053 114.327 240.626 114.458 241.254C114.62 242.035 114.66 242.772 114.578 243.468C114.514 244.137 114.399 244.782 114.234 245.404C114.065 246.004 113.883 246.596 113.687 247.179C113.492 247.762 113.344 248.358 113.244 248.967C113.145 249.575 113.141 250.209 113.232 250.868C113.319 251.506 113.557 252.214 113.945 252.992C113.915 253.066 113.844 253.16 113.732 253.274C113.615 253.366 113.488 253.46 113.35 253.557C113.233 253.649 113.106 253.743 112.968 253.84C112.851 253.932 112.76 253.984 112.695 253.998C112.218 254.097 111.814 254.056 111.483 253.877C111.147 253.675 110.857 253.419 110.611 253.108C110.383 252.771 110.205 252.401 110.076 251.998C109.947 251.596 109.849 251.232 109.781 250.907Z" fill="#D6D2D2"/>
<g filter="url(#filter3_d)">
<mask id="path-20-inside-4" fill="white">
<path fill-rule="evenodd" clip-rule="evenodd" d="M26.9893 119.492C14.2926 122.17 6.1712 134.634 8.84951 147.33C11.5278 160.027 23.9916 168.149 36.6882 165.47L62.7401 159.975L79.0828 178.668L86.4824 154.966L101.36 151.828C114.056 149.15 122.178 136.686 119.499 123.989C116.821 111.293 104.357 103.171 91.6605 105.85L26.9893 119.492Z"/>
</mask>
<path fill-rule="evenodd" clip-rule="evenodd" d="M26.9893 119.492C14.2926 122.17 6.1712 134.634 8.84951 147.33C11.5278 160.027 23.9916 168.149 36.6882 165.47L62.7401 159.975L79.0828 178.668L86.4824 154.966L101.36 151.828C114.056 149.15 122.178 136.686 119.499 123.989C116.821 111.293 104.357 103.171 91.6605 105.85L26.9893 119.492Z" fill="white" fill-opacity="0.88"/>
<path d="M62.7401 159.975L65.7515 157.342L64.2084 155.577L61.9144 156.061L62.7401 159.975ZM79.0828 178.668L76.0714 181.301L80.7725 186.678L82.9011 179.86L79.0828 178.668ZM86.4824 154.966L85.6568 151.052L83.3628 151.536L82.6641 153.774L86.4824 154.966ZM12.7634 146.505C10.541 135.97 17.2798 125.628 27.8149 123.406L26.1636 115.578C11.3055 118.712 1.80136 133.298 4.93564 148.156L12.7634 146.505ZM35.8626 161.556C25.3276 163.779 14.9857 157.04 12.7634 146.505L4.93564 148.156C8.06993 163.014 22.6557 172.518 37.5139 169.384L35.8626 161.556ZM61.9144 156.061L35.8626 161.556L37.5139 169.384L63.5657 163.889L61.9144 156.061ZM82.0943 176.036L65.7515 157.342L59.7286 162.607L76.0714 181.301L82.0943 176.036ZM82.6641 153.774L75.2646 177.476L82.9011 179.86L90.3006 156.158L82.6641 153.774ZM100.534 147.914L85.6568 151.052L87.308 158.88L102.185 155.742L100.534 147.914ZM115.585 124.815C117.808 135.35 111.069 145.692 100.534 147.914L102.185 155.742C117.043 152.608 126.547 138.022 123.413 123.164L115.585 124.815ZM92.4862 109.763C103.021 107.541 113.363 114.28 115.585 124.815L123.413 123.164C120.279 108.305 105.693 98.8013 90.8349 101.936L92.4862 109.763ZM27.8149 123.406L92.4862 109.763L90.8349 101.936L26.1636 115.578L27.8149 123.406Z" fill="#D6D3B9" mask="url(#path-20-inside-4)"/>
</g>
<path d="M33.6875 148.566C33.4265 147.309 33.509 146.127 33.935 145.022C34.361 143.916 34.9658 142.909 35.7492 142C36.5282 141.069 37.4077 140.242 38.3879 139.519C39.3635 138.774 40.2836 138.142 41.148 137.623C42.008 137.083 42.732 136.65 43.32 136.325C43.9035 135.977 44.1818 135.739 44.1548 135.609C43.9973 134.85 43.8009 134.122 43.5657 133.425C43.3477 132.702 43.1189 131.981 42.8792 131.262C42.6395 130.543 42.402 129.835 42.1668 129.137C41.9488 128.414 41.7656 127.695 41.6171 126.98L41.1783 124.866C41.9994 124.357 42.6347 124.259 43.0841 124.572C43.5552 124.882 43.7598 125.54 43.6977 126.548C43.8834 127.006 44.1578 127.729 44.521 128.716C44.8842 129.704 45.2853 130.819 45.7242 132.061C46.1847 133.299 46.6588 134.603 47.1464 135.971C47.6556 137.335 48.1319 138.649 48.5753 139.913C49.0358 141.151 49.4369 142.266 49.7784 143.258C50.1155 144.228 50.3682 144.955 50.5368 145.44C50.5809 145.544 50.6476 145.757 50.7368 146.077C50.8215 146.376 50.902 146.71 50.9785 147.078C51.0722 147.42 51.1506 147.743 51.2136 148.047C51.2982 148.346 51.3541 148.56 51.3811 148.69C50.5575 148.861 49.9872 148.946 49.6703 148.944C49.3751 148.937 49.1638 148.845 49.0366 148.668C48.9311 148.487 48.8401 148.212 48.7636 147.843C48.6871 147.475 48.473 146.988 48.1213 146.383C47.4499 147.178 46.7993 147.855 46.1696 148.416C45.5399 148.976 44.8944 149.46 44.2332 149.869C43.5675 150.256 42.8752 150.569 42.1563 150.809C41.4636 151.066 40.7054 151.28 39.8818 151.451C39.1883 151.595 38.5052 151.68 37.8325 151.707C37.177 151.707 36.5685 151.607 36.007 151.408C35.4455 151.208 34.959 150.879 34.5476 150.422C34.1362 149.965 33.8495 149.346 33.6875 148.566ZM36.3741 147.296C36.4461 147.643 36.5804 147.909 36.7771 148.094C36.9739 148.279 37.2072 148.423 37.4771 148.525C37.747 148.627 38.0187 148.684 38.2923 148.695C38.583 148.68 38.8585 148.645 39.1185 148.591C39.8771 148.434 40.6606 148.124 41.469 147.662C42.2946 147.174 43.0219 146.594 43.6508 145.921C44.2968 145.221 44.7818 144.454 45.1056 143.618C45.451 142.777 45.5338 141.924 45.3538 141.057C45.2143 140.385 44.9983 139.944 44.7059 139.733C44.4135 139.523 43.9314 139.487 43.2595 139.627C42.566 139.771 41.787 140.102 40.9225 140.62C40.0798 141.135 39.2812 141.753 38.5267 142.474C37.794 143.192 37.2115 143.98 36.7793 144.838C36.3427 145.675 36.2076 146.494 36.3741 147.296ZM51.9694 141.887C51.6904 140.544 51.7459 139.232 52.1359 137.953C52.5214 136.652 53.138 135.484 53.9857 134.449C54.8505 133.388 55.8727 132.486 57.0525 131.744C58.2539 130.997 59.5156 130.486 60.8376 130.212C61.5745 130.059 62.2742 130.162 62.9367 130.522C63.6209 130.877 64.2301 131.361 64.7642 131.974C65.2938 132.565 65.7349 133.219 66.0874 133.937C66.4617 134.651 66.7073 135.289 66.8243 135.853C67.0763 137.067 67.0289 138.309 66.6823 139.579C66.3311 140.827 65.7818 141.993 65.0343 143.075C64.2824 144.135 63.3775 145.058 62.3196 145.842C61.2618 146.627 60.1477 147.141 58.9773 147.384C57.937 147.6 57.0233 147.609 56.236 147.411C55.4443 147.191 54.771 146.833 54.216 146.338C53.6566 145.821 53.1852 145.184 52.802 144.428C52.4359 143.644 52.1584 142.798 51.9694 141.887ZM54.8002 141.639C54.9172 142.202 55.0641 142.692 55.2408 143.107C55.4346 143.497 55.6823 143.818 55.9837 144.072C56.3067 144.322 56.6922 144.49 57.14 144.578C57.5833 144.644 58.1083 144.614 58.7152 144.488C59.5171 144.322 60.274 143.939 60.9859 143.339C61.6933 142.717 62.2915 142.005 62.7805 141.203C63.2867 140.374 63.6494 139.508 63.8685 138.603C64.0876 137.698 64.1162 136.856 63.9542 136.076C63.8822 135.729 63.7709 135.356 63.6204 134.958C63.4699 134.56 63.2828 134.203 63.0591 133.888C62.8354 133.573 62.5579 133.325 62.2266 133.145C61.8954 132.965 61.513 132.92 61.0795 133.01C60.6894 133.091 60.2505 133.318 59.7626 133.691C59.2965 134.059 58.8136 134.509 58.3139 135.043C57.8359 135.571 57.3691 136.154 56.9136 136.792C56.4798 137.424 56.0893 138.048 55.7422 138.663C55.395 139.277 55.1301 139.852 54.9473 140.387C54.7863 140.918 54.7372 141.335 54.8002 141.639ZM82.0282 160.571C83.2419 160.319 84.2783 159.867 85.1374 159.213C86.001 158.582 86.6769 157.809 87.1651 156.893C87.6795 155.995 88.0066 155.012 88.1463 153.943C88.3123 152.891 88.285 151.834 88.0645 150.772C87.952 150.23 87.771 149.522 87.5215 148.647C87.2936 147.767 87.0175 146.818 86.6932 145.801C86.3688 144.783 85.9857 143.755 85.544 142.716C85.124 141.673 84.6632 140.706 84.1618 139.815C83.6559 138.903 83.1011 138.137 82.4974 137.516C81.911 136.869 81.2937 136.454 80.6455 136.273C80.172 136.823 79.7026 137.339 79.2372 137.82C78.7674 138.279 78.2647 138.689 77.729 139.048C77.1933 139.408 76.627 139.729 76.0299 140.012C75.4284 140.272 74.77 140.477 74.0548 140.625C73.1229 140.819 72.303 140.898 71.5951 140.865C70.9089 140.826 70.2955 140.648 69.7549 140.331C69.2359 140.009 68.7983 139.535 68.4421 138.908C68.0858 138.281 67.802 137.458 67.5905 136.44C67.442 135.725 67.4714 134.995 67.6786 134.251C67.8814 133.486 68.2038 132.752 68.6458 132.05C69.105 131.321 69.6404 130.634 70.2521 129.987C70.8855 129.335 71.5432 128.746 72.2253 128.221C72.929 127.69 73.6291 127.251 74.3255 126.903C75.0435 126.55 75.6952 126.313 76.2803 126.192C76.8438 126.075 77.3143 126 77.6918 125.966C78.0647 125.912 78.397 125.933 78.6885 126.031C78.9756 126.107 79.2373 126.279 79.4737 126.546C79.7273 126.787 79.9925 127.139 80.2694 127.602C81.1189 129.189 82.0712 130.89 83.1264 132.705C84.1816 134.521 85.2155 136.398 86.2282 138.335C87.2409 140.272 88.1583 142.241 88.9804 144.241C89.8287 146.257 90.4553 148.241 90.8603 150.192C91.2203 151.926 91.2749 153.44 91.0239 154.736C90.7991 156.048 90.3645 157.167 89.72 158.092C89.1018 159.035 88.3261 159.817 87.393 160.441C86.4815 161.059 85.5277 161.529 84.5316 161.849C83.5399 162.19 82.5606 162.427 81.5934 162.56C80.6263 162.693 79.7757 162.734 79.0417 162.683C78.3122 162.654 77.7384 162.558 77.3205 162.396C76.9242 162.23 76.7948 162.042 76.9321 161.833C77.0957 161.641 77.5717 161.429 78.3601 161.197C79.1485 160.966 80.3712 160.757 82.0282 160.571ZM75.9696 129.105C74.4378 129.785 73.2386 130.542 72.3721 131.378C71.5229 132.187 70.9232 133.001 70.5732 133.82C70.2404 134.612 70.1266 135.371 70.2317 136.095C70.3324 136.797 70.5862 137.366 70.9931 137.802C71.4 138.237 71.9123 138.527 72.5298 138.67C73.1644 138.787 73.8277 138.66 74.5196 138.291C75.207 137.899 75.8837 137.239 76.5498 136.309C77.2376 135.375 77.8488 134.073 78.3836 132.402C78.3071 132.033 78.2238 131.632 78.1338 131.199C78.0655 130.761 77.952 130.377 77.7933 130.049C77.6301 129.698 77.4045 129.428 77.1166 129.24C76.8287 129.051 76.4464 129.006 75.9696 129.105ZM94.2068 138.544C94.1528 138.283 94.1895 137.971 94.3171 137.605C94.4447 137.239 94.6092 136.889 94.8108 136.553C95.0341 136.213 95.2771 135.914 95.5401 135.656C95.8247 135.393 96.1078 135.232 96.3896 135.174C96.4329 135.165 96.5615 135.24 96.7754 135.399C97.0065 135.532 97.1766 135.644 97.2858 135.734C97.3427 135.79 97.4193 135.887 97.5159 136.025C97.6296 136.137 97.7347 136.262 97.8312 136.401C97.9494 136.534 98.0436 136.662 98.114 136.783C98.1798 136.882 98.215 136.943 98.2195 136.964C98.305 137.376 98.3161 137.702 98.2527 137.941C98.1848 138.158 98.0732 138.329 97.9178 138.451C97.7579 138.552 97.5588 138.628 97.3204 138.677C97.1037 138.722 96.8653 138.772 96.6052 138.826C96.5185 138.844 96.3582 138.888 96.1243 138.959C95.8859 139.009 95.6236 139.052 95.3373 139.089C95.0682 139.099 94.8272 139.082 94.6141 139.035C94.3965 138.968 94.2608 138.804 94.2068 138.544ZM89.4164 126.415C89.2544 125.634 89.2553 124.877 89.4192 124.142C89.6003 123.381 89.7968 122.639 90.0085 121.917C90.242 121.19 90.4407 120.46 90.6046 119.725C90.7857 118.964 90.7952 118.193 90.6332 117.413C90.5747 117.131 90.434 116.889 90.2112 116.687C90.0055 116.458 89.7654 116.282 89.491 116.158C89.2121 116.012 88.9097 115.917 88.5837 115.871C88.2578 115.826 87.954 115.833 87.6722 115.891C87.2604 115.977 86.8928 116.166 86.5694 116.459C86.2676 116.748 85.9965 117.076 85.7561 117.442C85.5112 117.787 85.2816 118.151 85.0673 118.534C84.8747 118.914 84.6709 119.238 84.4558 119.509C84.4215 119.562 84.2788 119.636 84.0277 119.734C83.7983 119.827 83.6511 119.88 83.5861 119.893C83.4106 119.048 83.3569 118.245 83.4252 117.485C83.5151 116.72 83.7336 116.031 84.0807 115.416C84.4279 114.801 84.9081 114.283 85.5215 113.862C86.152 113.415 86.9008 113.101 87.7677 112.921C88.3745 112.795 89.0215 112.808 89.7085 112.959C90.4172 113.106 91.0703 113.366 91.6678 113.739C92.2607 114.091 92.7805 114.525 93.2271 115.043C93.6737 115.561 93.9623 116.134 94.0928 116.762C94.2548 117.542 94.2949 118.28 94.2132 118.975C94.1486 119.644 94.034 120.29 93.8692 120.912C93.7 121.512 93.5176 122.104 93.3222 122.687C93.1268 123.27 92.9792 123.866 92.8795 124.475C92.7797 125.083 92.7757 125.717 92.8673 126.376C92.9545 127.014 93.1919 127.722 93.5797 128.5C93.5498 128.574 93.4789 128.668 93.3668 128.782C93.2503 128.874 93.1229 128.968 92.9847 129.065C92.8682 129.157 92.7408 129.251 92.6026 129.348C92.4861 129.44 92.3953 129.492 92.3303 129.506C91.8534 129.605 91.4494 129.564 91.1182 129.384C90.7824 129.183 90.4918 128.927 90.2465 128.616C90.0182 128.279 89.8397 127.909 89.7109 127.506C89.582 127.104 89.4839 126.74 89.4164 126.415Z" fill="#D6D2D2"/>
<defs>
<filter id="filter0_d" x="250.081" y="211.081" width="163.113" height="121.368" filterUnits="userSpaceOnUse" color-interpolation-filters="sRGB">
<feFlood flood-opacity="0" result="BackgroundImageFix"/>
<feColorMatrix in="SourceAlpha" type="matrix" values="0 0 0 0 0 0 0 0 0 0 0 0 0 0 0 0 0 0 127 0"/>
<feOffset dx="-6" dy="8"/>
<feGaussianBlur stdDeviation="4"/>
<feColorMatrix type="matrix" values="0 0 0 0 0.6125 0 0 0 0 0.607396 0 0 0 0 0.592083 0 0 0 0.8 0"/>
<feBlend mode="normal" in2="BackgroundImageFix" result="effect1_dropShadow"/>
<feBlend mode="normal" in="SourceGraphic" in2="effect1_dropShadow" result="shape"/>
</filter>
<filter id="filter1_d" x="335.557" y="82.5566" width="160.147" height="102.621" filterUnits="userSpaceOnUse" color-interpolation-filters="sRGB">
<feFlood flood-opacity="0" result="BackgroundImageFix"/>
<feColorMatrix in="SourceAlpha" type="matrix" values="0 0 0 0 0 0 0 0 0 0 0 0 0 0 0 0 0 0 127 0"/>
<feOffset dy="4"/>
<feGaussianBlur stdDeviation="2"/>
<feColorMatrix type="matrix" values="0 0 0 0 0.379716 0 0 0 0 0.595165 0 0 0 0 0.6875 0 0 0 0.25 0"/>
<feBlend mode="normal" in2="BackgroundImageFix" result="effect1_dropShadow"/>
<feBlend mode="normal" in="SourceGraphic" in2="effect1_dropShadow" result="shape"/>
</filter>
<filter id="filter2_d" x="2.55243" y="223.552" width="139.944" height="95.3194" filterUnits="userSpaceOnUse" color-interpolation-filters="sRGB">
<feFlood flood-opacity="0" result="BackgroundImageFix"/>
<feColorMatrix in="SourceAlpha" type="matrix" values="0 0 0 0 0 0 0 0 0 0 0 0 0 0 0 0 0 0 127 0"/>
<feOffset dy="4"/>
<feGaussianBlur stdDeviation="2"/>
<feColorMatrix type="matrix" values="0 0 0 0 0.379716 0 0 0 0 0.595165 0 0 0 0 0.6875 0 0 0 0.25 0"/>
<feBlend mode="normal" in2="BackgroundImageFix" result="effect1_dropShadow"/>
<feBlend mode="normal" in="SourceGraphic" in2="effect1_dropShadow" result="shape"/>
</filter>
<filter id="filter3_d" x="0.337982" y="101.338" width="127.673" height="93.3405" filterUnits="userSpaceOnUse" color-interpolation-filters="sRGB">
<feFlood flood-opacity="0" result="BackgroundImageFix"/>
<feColorMatrix in="SourceAlpha" type="matrix" values="0 0 0 0 0 0 0 0 0 0 0 0 0 0 0 0 0 0 127 0"/>
<feOffset dy="4"/>
<feGaussianBlur stdDeviation="2"/>
<feColorMatrix type="matrix" values="0 0 0 0 0.379716 0 0 0 0 0.595165 0 0 0 0 0.6875 0 0 0 0.25 0"/>
<feBlend mode="normal" in2="BackgroundImageFix" result="effect1_dropShadow"/>
<feBlend mode="normal" in="SourceGraphic" in2="effect1_dropShadow" result="shape"/>
</filter>
</defs>
</svg>
